<mxfile host="65bd71144e">
    <diagram id="k5bqN02csQ1cKzLP5F3b" name="SystemComponents">
        <mxGraphModel dx="1177" dy="779" grid="1" gridSize="10" guides="1" tooltips="1" connect="1" arrows="1" fold="1" page="1" pageScale="1" pageWidth="1169" pageHeight="827" math="0" shadow="0">
            <root>
                <mxCell id="0"/>
                <mxCell id="1" parent="0"/>
                <mxCell id="19" value="" style="whiteSpace=wrap;html=1;aspect=fixed;fillColor=none;dashed=1;" parent="1" vertex="1">
                    <mxGeometry x="390" y="80" width="490" height="490" as="geometry"/>
                </mxCell>
                <mxCell id="2" value="«Frontend»&lt;br&gt;&lt;b&gt;UI&lt;/b&gt;" style="html=1;dropTarget=0;" parent="1" vertex="1">
                    <mxGeometry x="70" y="230" width="180" height="90" as="geometry"/>
                </mxCell>
                <mxCell id="3" value="" style="shape=module;jettyWidth=8;jettyHeight=4;" parent="2" vertex="1">
                    <mxGeometry x="1" width="20" height="20" relative="1" as="geometry">
                        <mxPoint x="-27" y="7" as="offset"/>
                    </mxGeometry>
                </mxCell>
                <mxCell id="4" value="«Backend»&lt;br&gt;&lt;b&gt;Auth&lt;/b&gt;" style="html=1;dropTarget=0;" parent="1" vertex="1">
                    <mxGeometry x="660" y="140" width="180" height="90" as="geometry"/>
                </mxCell>
                <mxCell id="5" value="" style="shape=module;jettyWidth=8;jettyHeight=4;" parent="4" vertex="1">
                    <mxGeometry x="1" width="20" height="20" relative="1" as="geometry">
                        <mxPoint x="-27" y="7" as="offset"/>
                    </mxGeometry>
                </mxCell>
                <mxCell id="6" value="«Backend»&lt;br&gt;&lt;b&gt;Dashboards&lt;/b&gt;" style="html=1;dropTarget=0;" parent="1" vertex="1">
                    <mxGeometry x="660" y="250" width="180" height="90" as="geometry"/>
                </mxCell>
                <mxCell id="7" value="" style="shape=module;jettyWidth=8;jettyHeight=4;" parent="6" vertex="1">
                    <mxGeometry x="1" width="20" height="20" relative="1" as="geometry">
                        <mxPoint x="-27" y="7" as="offset"/>
                    </mxGeometry>
                </mxCell>
                <mxCell id="8" value="«Backend»&lt;br&gt;&lt;b&gt;Forecaster&lt;/b&gt;" style="html=1;dropTarget=0;" parent="1" vertex="1">
                    <mxGeometry x="660" y="374" width="180" height="90" as="geometry"/>
                </mxCell>
                <mxCell id="9" value="" style="shape=module;jettyWidth=8;jettyHeight=4;" parent="8" vertex="1">
                    <mxGeometry x="1" width="20" height="20" relative="1" as="geometry">
                        <mxPoint x="-27" y="7" as="offset"/>
                    </mxGeometry>
                </mxCell>
                <mxCell id="10" value="«Backend»&lt;br&gt;&lt;b&gt;RevProxy&lt;/b&gt;" style="html=1;dropTarget=0;" parent="1" vertex="1">
                    <mxGeometry x="480" y="140" width="95" height="320" as="geometry"/>
                </mxCell>
                <mxCell id="11" value="" style="shape=module;jettyWidth=8;jettyHeight=4;" parent="10" vertex="1">
                    <mxGeometry x="1" width="20" height="20" relative="1" as="geometry">
                        <mxPoint x="-27" y="7" as="offset"/>
                    </mxGeometry>
                </mxCell>
                <mxCell id="13" value="Provides the User interface" style="text;html=1;strokeColor=none;fillColor=none;align=center;verticalAlign=middle;whiteSpace=wrap;rounded=0;" parent="1" vertex="1">
                    <mxGeometry x="80" y="340" width="140" height="30" as="geometry"/>
                </mxCell>
                <mxCell id="14" value="DataAPI" style="ellipse;shape=cloud;whiteSpace=wrap;html=1;" parent="1" vertex="1">
                    <mxGeometry x="90" y="10" width="120" height="80" as="geometry"/>
                </mxCell>
                <mxCell id="15" value="Single point of entry for backend. Redirects requests to proper services" style="text;html=1;strokeColor=none;fillColor=none;align=center;verticalAlign=middle;whiteSpace=wrap;rounded=0;" parent="1" vertex="1">
                    <mxGeometry x="457.5" y="480" width="140" height="56" as="geometry"/>
                </mxCell>
                <mxCell id="17" value="Here, the frontend directly accesses the DataAPI based on the acces-token received on authentication from the backend Auth service.&lt;br&gt;&lt;br&gt;An alternative is passing through the backend to hide the access token.&amp;nbsp;&lt;br&gt;However, the data we access is public, and the token is only used to read. Therefore we don't need the extra effort to secure it." style="text;html=1;strokeColor=none;fillColor=none;align=center;verticalAlign=middle;whiteSpace=wrap;rounded=0;" parent="1" vertex="1">
                    <mxGeometry x="10" y="90" width="280" height="130" as="geometry"/>
                </mxCell>
                <mxCell id="20" value="backend network" style="text;html=1;strokeColor=none;fillColor=none;align=center;verticalAlign=middle;whiteSpace=wrap;rounded=0;dashed=1;" parent="1" vertex="1">
                    <mxGeometry x="750" y="50" width="140" height="30" as="geometry"/>
                </mxCell>
                <mxCell id="37" value="" style="group;rotation=-180;" parent="1" vertex="1" connectable="0">
                    <mxGeometry x="340" y="250" width="60" height="30" as="geometry"/>
                </mxCell>
                <mxCell id="34" value="" style="html=1;rounded=0;fillColor=none;rotation=-180;" parent="37" vertex="1">
                    <mxGeometry x="30" width="30" height="30" as="geometry"/>
                </mxCell>
                <mxCell id="35" value="" style="endArrow=none;html=1;rounded=0;align=center;verticalAlign=top;endFill=0;labelBackgroundColor=none;endSize=2;" parent="37" source="34" target="36" edge="1">
                    <mxGeometry relative="1" as="geometry"/>
                </mxCell>
                <mxCell id="36" value="" style="ellipse;html=1;fontSize=11;align=center;fillColor=none;points=[];aspect=fixed;resizable=0;verticalAlign=bottom;labelPosition=center;verticalLabelPosition=top;flipH=1;rotation=-180;" parent="37" vertex="1">
                    <mxGeometry y="11" width="8" height="8" as="geometry"/>
                </mxCell>
                <mxCell id="38" value="" style="group;rotation=-180;" parent="1" vertex="1" connectable="0">
                    <mxGeometry x="430" y="250" width="60" height="30" as="geometry"/>
                </mxCell>
                <mxCell id="39" value="" style="html=1;rounded=0;fillColor=none;rotation=-180;" parent="38" vertex="1">
                    <mxGeometry x="30" width="30" height="30" as="geometry"/>
                </mxCell>
                <mxCell id="40" value="" style="endArrow=none;html=1;rounded=0;align=center;verticalAlign=top;endFill=0;labelBackgroundColor=none;endSize=2;" parent="38" source="39" target="41" edge="1">
                    <mxGeometry relative="1" as="geometry"/>
                </mxCell>
                <mxCell id="41" value="" style="ellipse;html=1;fontSize=11;align=center;fillColor=none;points=[];aspect=fixed;resizable=0;verticalAlign=bottom;labelPosition=center;verticalLabelPosition=top;flipH=1;rotation=-180;" parent="38" vertex="1">
                    <mxGeometry y="11" width="8" height="8" as="geometry"/>
                </mxCell>
                <mxCell id="42" value="" style="endArrow=none;dashed=1;html=1;exitX=0;exitY=0.5;exitDx=0;exitDy=0;" parent="1" source="34" edge="1">
                    <mxGeometry width="50" height="50" relative="1" as="geometry">
                        <mxPoint x="300" y="370" as="sourcePoint"/>
                        <mxPoint x="430" y="265" as="targetPoint"/>
                    </mxGeometry>
                </mxCell>
                <mxCell id="43" value="Inside the private network, services can communicate via docker-dns" style="text;html=1;strokeColor=none;fillColor=none;align=center;verticalAlign=middle;whiteSpace=wrap;rounded=0;dashed=1;" parent="1" vertex="1">
                    <mxGeometry x="530" y="70" width="210" height="60" as="geometry"/>
                </mxCell>
            </root>
        </mxGraphModel>
    </diagram>
    <diagram id="5wI-kCk8OfMBNjvCVMY2" name="Backend services">
        <mxGraphModel dx="1199" dy="413" grid="1" gridSize="10" guides="1" tooltips="1" connect="1" arrows="1" fold="1" page="1" pageScale="1" pageWidth="1169" pageHeight="827" math="0" shadow="0">
            <root>
                <mxCell id="0"/>
                <mxCell id="1" parent="0"/>
                <mxCell id="4BP66CT8XZtjAaU_4Pfg-1" value="" style="html=1;dropTarget=0;" parent="1" vertex="1">
                    <mxGeometry x="50" y="60" width="590" height="250" as="geometry"/>
                </mxCell>
                <mxCell id="4BP66CT8XZtjAaU_4Pfg-2" value="" style="shape=module;jettyWidth=8;jettyHeight=4;" parent="4BP66CT8XZtjAaU_4Pfg-1" vertex="1">
                    <mxGeometry x="1" width="20" height="20" relative="1" as="geometry">
                        <mxPoint x="-27" y="7" as="offset"/>
                    </mxGeometry>
                </mxCell>
                <mxCell id="4BP66CT8XZtjAaU_4Pfg-4" value="«Component»&lt;br&gt;&lt;b&gt;AppServer&lt;/b&gt;" style="html=1;dropTarget=0;" parent="1" vertex="1">
                    <mxGeometry x="90" y="110" width="110" height="150" as="geometry"/>
                </mxCell>
                <mxCell id="4BP66CT8XZtjAaU_4Pfg-5" value="" style="shape=module;jettyWidth=8;jettyHeight=4;" parent="4BP66CT8XZtjAaU_4Pfg-4" vertex="1">
                    <mxGeometry x="1" width="20" height="20" relative="1" as="geometry">
                        <mxPoint x="-27" y="7" as="offset"/>
                    </mxGeometry>
                </mxCell>
                <mxCell id="4BP66CT8XZtjAaU_4Pfg-6" value="«Component»&lt;br&gt;&lt;b&gt;AuthLogic&lt;/b&gt;" style="html=1;dropTarget=0;" parent="1" vertex="1">
                    <mxGeometry x="250" y="110" width="110" height="150" as="geometry"/>
                </mxCell>
                <mxCell id="4BP66CT8XZtjAaU_4Pfg-7" value="" style="shape=module;jettyWidth=8;jettyHeight=4;" parent="4BP66CT8XZtjAaU_4Pfg-6" vertex="1">
                    <mxGeometry x="1" width="20" height="20" relative="1" as="geometry">
                        <mxPoint x="-27" y="7" as="offset"/>
                    </mxGeometry>
                </mxCell>
                <mxCell id="4BP66CT8XZtjAaU_4Pfg-8" value="«Component»&lt;br&gt;&lt;b&gt;StorageProvider&lt;/b&gt;" style="html=1;dropTarget=0;" parent="1" vertex="1">
                    <mxGeometry x="430" y="110" width="110" height="150" as="geometry"/>
                </mxCell>
                <mxCell id="4BP66CT8XZtjAaU_4Pfg-9" value="" style="shape=module;jettyWidth=8;jettyHeight=4;" parent="4BP66CT8XZtjAaU_4Pfg-8" vertex="1">
                    <mxGeometry x="1" width="20" height="20" relative="1" as="geometry">
                        <mxPoint x="-27" y="7" as="offset"/>
                    </mxGeometry>
                </mxCell>
                <mxCell id="4BP66CT8XZtjAaU_4Pfg-10" value="Auth Service" style="text;html=1;align=center;verticalAlign=middle;resizable=0;points=[];autosize=1;strokeColor=none;fillColor=none;" parent="1" vertex="1">
                    <mxGeometry x="250" y="30" width="90" height="30" as="geometry"/>
                </mxCell>
                <mxCell id="ruvIt_iEg97WQy3mAJ6C-1" value="" style="html=1;dropTarget=0;" parent="1" vertex="1">
                    <mxGeometry x="60" y="350" width="590" height="250" as="geometry"/>
                </mxCell>
                <mxCell id="ruvIt_iEg97WQy3mAJ6C-2" value="" style="shape=module;jettyWidth=8;jettyHeight=4;" parent="ruvIt_iEg97WQy3mAJ6C-1" vertex="1">
                    <mxGeometry x="1" width="20" height="20" relative="1" as="geometry">
                        <mxPoint x="-27" y="7" as="offset"/>
                    </mxGeometry>
                </mxCell>
                <mxCell id="ruvIt_iEg97WQy3mAJ6C-3" value="«Component»&lt;br&gt;&lt;b&gt;AppServer&lt;/b&gt;" style="html=1;dropTarget=0;" parent="1" vertex="1">
                    <mxGeometry x="100" y="400" width="110" height="150" as="geometry"/>
                </mxCell>
                <mxCell id="ruvIt_iEg97WQy3mAJ6C-4" value="" style="shape=module;jettyWidth=8;jettyHeight=4;" parent="ruvIt_iEg97WQy3mAJ6C-3" vertex="1">
                    <mxGeometry x="1" width="20" height="20" relative="1" as="geometry">
                        <mxPoint x="-27" y="7" as="offset"/>
                    </mxGeometry>
                </mxCell>
                <mxCell id="ruvIt_iEg97WQy3mAJ6C-5" value="«Component»&lt;br&gt;&lt;b&gt;Dashboards Logic&lt;/b&gt;" style="html=1;dropTarget=0;" parent="1" vertex="1">
                    <mxGeometry x="285" y="400" width="120" height="150" as="geometry"/>
                </mxCell>
                <mxCell id="ruvIt_iEg97WQy3mAJ6C-6" value="" style="shape=module;jettyWidth=8;jettyHeight=4;" parent="ruvIt_iEg97WQy3mAJ6C-5" vertex="1">
                    <mxGeometry x="1" width="20" height="20" relative="1" as="geometry">
                        <mxPoint x="-27" y="7" as="offset"/>
                    </mxGeometry>
                </mxCell>
                <mxCell id="ruvIt_iEg97WQy3mAJ6C-7" value="«Component»&lt;br&gt;&lt;b&gt;StorageProvider&lt;/b&gt;" style="html=1;dropTarget=0;" parent="1" vertex="1">
                    <mxGeometry x="475" y="400" width="110" height="150" as="geometry"/>
                </mxCell>
                <mxCell id="ruvIt_iEg97WQy3mAJ6C-8" value="" style="shape=module;jettyWidth=8;jettyHeight=4;" parent="ruvIt_iEg97WQy3mAJ6C-7" vertex="1">
                    <mxGeometry x="1" width="20" height="20" relative="1" as="geometry">
                        <mxPoint x="-27" y="7" as="offset"/>
                    </mxGeometry>
                </mxCell>
                <mxCell id="ruvIt_iEg97WQy3mAJ6C-9" value="Dashboards Service" style="text;html=1;align=center;verticalAlign=middle;resizable=0;points=[];autosize=1;strokeColor=none;fillColor=none;" parent="1" vertex="1">
                    <mxGeometry x="240" y="320" width="130" height="30" as="geometry"/>
                </mxCell>
            </root>
        </mxGraphModel>
    </diagram>
    <diagram id="uphkCuOw7HRHPjCCz7ia" name="SilentSignIn">
        <mxGraphModel dx="1199" dy="1240" grid="1" gridSize="10" guides="1" tooltips="1" connect="1" arrows="1" fold="1" page="1" pageScale="1" pageWidth="1169" pageHeight="827" math="0" shadow="0">
            <root>
                <mxCell id="0"/>
                <mxCell id="1" parent="0"/>
                <mxCell id="uh8G96t23eyZ6u7PxSP9-3" value="«Component»&lt;br&gt;&lt;b&gt;DashboardList&lt;/b&gt;" style="html=1;dropTarget=0;" parent="1" vertex="1">
                    <mxGeometry x="200" y="400" width="180" height="90" as="geometry"/>
                </mxCell>
                <mxCell id="uh8G96t23eyZ6u7PxSP9-4" value="" style="shape=module;jettyWidth=8;jettyHeight=4;" parent="uh8G96t23eyZ6u7PxSP9-3" vertex="1">
                    <mxGeometry x="1" width="20" height="20" relative="1" as="geometry">
                        <mxPoint x="-27" y="7" as="offset"/>
                    </mxGeometry>
                </mxCell>
                <mxCell id="uh8G96t23eyZ6u7PxSP9-11" value="«Store»&lt;br&gt;&lt;b&gt;AuthStore&lt;/b&gt;" style="html=1;dropTarget=0;" parent="1" vertex="1">
                    <mxGeometry x="520" y="200" width="140" height="160" as="geometry"/>
                </mxCell>
                <mxCell id="uh8G96t23eyZ6u7PxSP9-12" value="" style="shape=module;jettyWidth=8;jettyHeight=4;" parent="uh8G96t23eyZ6u7PxSP9-11" vertex="1">
                    <mxGeometry x="1" width="20" height="20" relative="1" as="geometry">
                        <mxPoint x="-27" y="7" as="offset"/>
                    </mxGeometry>
                </mxCell>
                <mxCell id="uh8G96t23eyZ6u7PxSP9-15" value="authContextObservable" style="shape=cube;whiteSpace=wrap;html=1;boundedLbl=1;backgroundOutline=1;darkOpacity=0.05;darkOpacity2=0.1;" parent="1" vertex="1">
                    <mxGeometry x="340" y="260" width="150" height="40" as="geometry"/>
                </mxCell>
                <mxCell id="uh8G96t23eyZ6u7PxSP9-19" value="«Component»&lt;br&gt;&lt;b&gt;SignIn&lt;/b&gt;" style="html=1;dropTarget=0;" parent="1" vertex="1">
                    <mxGeometry x="160" y="200" width="140" height="110" as="geometry"/>
                </mxCell>
                <mxCell id="uh8G96t23eyZ6u7PxSP9-20" value="" style="shape=module;jettyWidth=8;jettyHeight=4;" parent="uh8G96t23eyZ6u7PxSP9-19" vertex="1">
                    <mxGeometry x="1" width="20" height="20" relative="1" as="geometry">
                        <mxPoint x="-27" y="7" as="offset"/>
                    </mxGeometry>
                </mxCell>
                <mxCell id="uh8G96t23eyZ6u7PxSP9-21" value="&lt;h1&gt;Silent SignIn&lt;/h1&gt;&lt;div&gt;- this mechanism is used temporarily, while a full auth and users concept is not defined.&lt;/div&gt;&lt;div&gt;- The SignIn component will simply act as a pass-trough here and trigger the automated sign in and populate the AuthStore with auth data.&lt;/div&gt;&lt;div&gt;- On successful sign in, the component will load DashboardsList&lt;/div&gt;" style="text;html=1;strokeColor=none;fillColor=none;spacing=5;spacingTop=-20;whiteSpace=wrap;overflow=hidden;rounded=0;" parent="1" vertex="1">
                    <mxGeometry x="250" width="420" height="130" as="geometry"/>
                </mxCell>
                <mxCell id="uh8G96t23eyZ6u7PxSP9-22" value="Security and guards" style="text;html=1;strokeColor=none;fillColor=none;align=center;verticalAlign=middle;whiteSpace=wrap;rounded=0;" parent="1" vertex="1">
                    <mxGeometry x="10" y="40" width="60" height="30" as="geometry"/>
                </mxCell>
                <mxCell id="uh8G96t23eyZ6u7PxSP9-32" value="" style="endArrow=classic;html=1;exitX=1.007;exitY=0.391;exitDx=0;exitDy=0;exitPerimeter=0;entryX=0;entryY=0.25;entryDx=0;entryDy=0;" parent="1" source="uh8G96t23eyZ6u7PxSP9-19" target="uh8G96t23eyZ6u7PxSP9-11" edge="1">
                    <mxGeometry width="50" height="50" relative="1" as="geometry">
                        <mxPoint x="370" y="290" as="sourcePoint"/>
                        <mxPoint x="420" y="240" as="targetPoint"/>
                    </mxGeometry>
                </mxCell>
                <mxCell id="uh8G96t23eyZ6u7PxSP9-33" value="onInit(): request sign in" style="text;html=1;align=center;verticalAlign=middle;resizable=0;points=[];autosize=1;strokeColor=none;fillColor=none;" parent="1" vertex="1">
                    <mxGeometry x="320" y="210" width="150" height="30" as="geometry"/>
                </mxCell>
                <mxCell id="uh8G96t23eyZ6u7PxSP9-34" value="Backend&amp;nbsp;&lt;br&gt;Services" style="rounded=1;whiteSpace=wrap;html=1;" parent="1" vertex="1">
                    <mxGeometry x="880" y="190" width="120" height="190" as="geometry"/>
                </mxCell>
                <mxCell id="uh8G96t23eyZ6u7PxSP9-35" value="browser&lt;br&gt;storage" style="shape=cylinder3;whiteSpace=wrap;html=1;boundedLbl=1;backgroundOutline=1;size=15;" parent="1" vertex="1">
                    <mxGeometry x="560" y="300" width="60" height="60" as="geometry"/>
                </mxCell>
                <mxCell id="uh8G96t23eyZ6u7PxSP9-36" value="" style="endArrow=classic;startArrow=classic;html=1;entryX=0.017;entryY=0.384;entryDx=0;entryDy=0;entryPerimeter=0;exitX=1.021;exitY=0.388;exitDx=0;exitDy=0;exitPerimeter=0;" parent="1" source="uh8G96t23eyZ6u7PxSP9-11" target="uh8G96t23eyZ6u7PxSP9-34" edge="1">
                    <mxGeometry width="50" height="50" relative="1" as="geometry">
                        <mxPoint x="700" y="280" as="sourcePoint"/>
                        <mxPoint x="750" y="230" as="targetPoint"/>
                    </mxGeometry>
                </mxCell>
                <mxCell id="uh8G96t23eyZ6u7PxSP9-37" value="SignIn with predefined credentials" style="text;html=1;align=center;verticalAlign=middle;resizable=0;points=[];autosize=1;strokeColor=none;fillColor=none;" parent="1" vertex="1">
                    <mxGeometry x="675" y="230" width="200" height="30" as="geometry"/>
                </mxCell>
                <mxCell id="uh8G96t23eyZ6u7PxSP9-38" value="" style="endArrow=classic;html=1;entryX=0.5;entryY=0;entryDx=0;entryDy=0;" parent="1" source="uh8G96t23eyZ6u7PxSP9-19" target="uh8G96t23eyZ6u7PxSP9-3" edge="1">
                    <mxGeometry width="50" height="50" relative="1" as="geometry">
                        <mxPoint x="350" y="380" as="sourcePoint"/>
                        <mxPoint x="400" y="330" as="targetPoint"/>
                        <Array as="points">
                            <mxPoint x="230" y="350"/>
                            <mxPoint x="290" y="350"/>
                        </Array>
                    </mxGeometry>
                </mxCell>
                <mxCell id="uh8G96t23eyZ6u7PxSP9-39" value="onSuccessfulAuth(): load DasboardsList" style="text;html=1;align=center;verticalAlign=middle;resizable=0;points=[];autosize=1;strokeColor=none;fillColor=none;" parent="1" vertex="1">
                    <mxGeometry x="185" y="320" width="240" height="30" as="geometry"/>
                </mxCell>
                <mxCell id="uh8G96t23eyZ6u7PxSP9-41" value="" style="endArrow=classic;html=1;entryX=1;entryY=0.75;entryDx=0;entryDy=0;" parent="1" source="uh8G96t23eyZ6u7PxSP9-15" target="uh8G96t23eyZ6u7PxSP9-19" edge="1">
                    <mxGeometry width="50" height="50" relative="1" as="geometry">
                        <mxPoint x="470" y="470" as="sourcePoint"/>
                        <mxPoint x="520" y="420" as="targetPoint"/>
                    </mxGeometry>
                </mxCell>
                <mxCell id="uh8G96t23eyZ6u7PxSP9-42" value="" style="endArrow=classic;html=1;entryX=0;entryY=0;entryDx=150;entryDy=30;entryPerimeter=0;" parent="1" target="uh8G96t23eyZ6u7PxSP9-15" edge="1">
                    <mxGeometry width="50" height="50" relative="1" as="geometry">
                        <mxPoint x="520" y="290" as="sourcePoint"/>
                        <mxPoint x="600" y="470" as="targetPoint"/>
                    </mxGeometry>
                </mxCell>
            </root>
        </mxGraphModel>
    </diagram>
    <diagram id="P16CNtLB-4IlEtLsnqEm" name="BackendDashboardsApi">
        <mxGraphModel dx="1177" dy="779" grid="1" gridSize="10" guides="1" tooltips="1" connect="1" arrows="1" fold="1" page="1" pageScale="1" pageWidth="1169" pageHeight="827" math="0" shadow="0">
            <root>
                <mxCell id="0"/>
                <mxCell id="1" parent="0"/>
                <mxCell id="WdKTfdVPN0f5Ysp5mIyR-1" value="Methods/Route" style="swimlane;whiteSpace=wrap;html=1;" parent="1" vertex="1">
                    <mxGeometry x="30" y="50" width="270" height="400" as="geometry"/>
                </mxCell>
                <mxCell id="WdKTfdVPN0f5Ysp5mIyR-4" value="GET,POST /dashboards/test" style="rounded=1;whiteSpace=wrap;html=1;" parent="WdKTfdVPN0f5Ysp5mIyR-1" vertex="1">
                    <mxGeometry x="20" y="40" width="210" height="40" as="geometry"/>
                </mxCell>
                <mxCell id="WdKTfdVPN0f5Ysp5mIyR-5" value="POST /dashboards" style="rounded=1;whiteSpace=wrap;html=1;" parent="WdKTfdVPN0f5Ysp5mIyR-1" vertex="1">
                    <mxGeometry x="20" y="100" width="210" height="40" as="geometry"/>
                </mxCell>
                <mxCell id="WdKTfdVPN0f5Ysp5mIyR-6" value="PUT /dashboards" style="rounded=1;whiteSpace=wrap;html=1;" parent="WdKTfdVPN0f5Ysp5mIyR-1" vertex="1">
                    <mxGeometry x="20" y="160" width="210" height="40" as="geometry"/>
                </mxCell>
                <mxCell id="WdKTfdVPN0f5Ysp5mIyR-7" value="DELETE /dashboards" style="rounded=1;whiteSpace=wrap;html=1;" parent="WdKTfdVPN0f5Ysp5mIyR-1" vertex="1">
                    <mxGeometry x="20" y="220" width="210" height="40" as="geometry"/>
                </mxCell>
                <mxCell id="WdKTfdVPN0f5Ysp5mIyR-8" value="GET /dashboards/find" style="rounded=1;whiteSpace=wrap;html=1;" parent="WdKTfdVPN0f5Ysp5mIyR-1" vertex="1">
                    <mxGeometry x="20" y="280" width="210" height="40" as="geometry"/>
                </mxCell>
                <mxCell id="WdKTfdVPN0f5Ysp5mIyR-9" value="GET /dashboards" style="rounded=1;whiteSpace=wrap;html=1;" parent="WdKTfdVPN0f5Ysp5mIyR-1" vertex="1">
                    <mxGeometry x="20" y="343.5" width="210" height="40" as="geometry"/>
                </mxCell>
                <mxCell id="WdKTfdVPN0f5Ysp5mIyR-2" value="Data: body/query" style="swimlane;whiteSpace=wrap;html=1;" parent="1" vertex="1">
                    <mxGeometry x="320" y="50" width="290" height="400" as="geometry"/>
                </mxCell>
                <mxCell id="WdKTfdVPN0f5Ysp5mIyR-11" value="Body {data to be mirrored}" style="rounded=1;whiteSpace=wrap;html=1;" parent="WdKTfdVPN0f5Ysp5mIyR-2" vertex="1">
                    <mxGeometry x="20" y="40" width="250" height="40" as="geometry"/>
                </mxCell>
                <mxCell id="WdKTfdVPN0f5Ysp5mIyR-13" value="Query userid&lt;br&gt;Body {name, trackedSymbols, timestamp}" style="rounded=1;whiteSpace=wrap;html=1;" parent="WdKTfdVPN0f5Ysp5mIyR-2" vertex="1">
                    <mxGeometry x="20" y="100" width="250" height="40" as="geometry"/>
                </mxCell>
                <mxCell id="WdKTfdVPN0f5Ysp5mIyR-15" value="Query: dashboard_id&lt;br&gt;Body { name, trackedSymbols, timestamp}" style="rounded=1;whiteSpace=wrap;html=1;" parent="WdKTfdVPN0f5Ysp5mIyR-2" vertex="1">
                    <mxGeometry x="20" y="160" width="250" height="40" as="geometry"/>
                </mxCell>
                <mxCell id="WdKTfdVPN0f5Ysp5mIyR-17" value="Query: dashboard_id" style="rounded=1;whiteSpace=wrap;html=1;" parent="WdKTfdVPN0f5Ysp5mIyR-2" vertex="1">
                    <mxGeometry x="15" y="220" width="255" height="40" as="geometry"/>
                </mxCell>
                <mxCell id="WdKTfdVPN0f5Ysp5mIyR-19" value="Query: dashboard_id" style="rounded=1;whiteSpace=wrap;html=1;" parent="WdKTfdVPN0f5Ysp5mIyR-2" vertex="1">
                    <mxGeometry x="15" y="280" width="255" height="40" as="geometry"/>
                </mxCell>
                <mxCell id="WdKTfdVPN0f5Ysp5mIyR-21" value="Query: {ownerid} or {ownerid, name}" style="rounded=1;whiteSpace=wrap;html=1;" parent="WdKTfdVPN0f5Ysp5mIyR-2" vertex="1">
                    <mxGeometry x="15" y="343.5" width="255" height="40" as="geometry"/>
                </mxCell>
                <mxCell id="WdKTfdVPN0f5Ysp5mIyR-3" value="Description" style="swimlane;whiteSpace=wrap;html=1;" parent="1" vertex="1">
                    <mxGeometry x="620" y="50" width="500" height="400" as="geometry"/>
                </mxCell>
                <mxCell id="WdKTfdVPN0f5Ysp5mIyR-12" value="Mirrors back request data" style="rounded=1;whiteSpace=wrap;html=1;align=center;" parent="WdKTfdVPN0f5Ysp5mIyR-3" vertex="1">
                    <mxGeometry x="10" y="40" width="460" height="40" as="geometry"/>
                </mxCell>
                <mxCell id="WdKTfdVPN0f5Ysp5mIyR-14" value="Creates a new dashboard and returns it if successful" style="rounded=1;whiteSpace=wrap;html=1;" parent="WdKTfdVPN0f5Ysp5mIyR-3" vertex="1">
                    <mxGeometry x="10" y="100" width="460" height="40" as="geometry"/>
                </mxCell>
                <mxCell id="WdKTfdVPN0f5Ysp5mIyR-16" value="Updates a dashboard configuration" style="rounded=1;whiteSpace=wrap;html=1;" parent="WdKTfdVPN0f5Ysp5mIyR-3" vertex="1">
                    <mxGeometry x="10" y="160" width="460" height="40" as="geometry"/>
                </mxCell>
                <mxCell id="WdKTfdVPN0f5Ysp5mIyR-18" value="Deletes a dashboard configuration" style="rounded=1;whiteSpace=wrap;html=1;" parent="WdKTfdVPN0f5Ysp5mIyR-3" vertex="1">
                    <mxGeometry x="10" y="220" width="460" height="40" as="geometry"/>
                </mxCell>
                <mxCell id="WdKTfdVPN0f5Ysp5mIyR-20" value="Returns a dashboard configuration" style="rounded=1;whiteSpace=wrap;html=1;" parent="WdKTfdVPN0f5Ysp5mIyR-3" vertex="1">
                    <mxGeometry x="10" y="280" width="460" height="40" as="geometry"/>
                </mxCell>
                <mxCell id="WdKTfdVPN0f5Ysp5mIyR-22" value="Returns all dashboard configurations for a user" style="rounded=1;whiteSpace=wrap;html=1;" parent="WdKTfdVPN0f5Ysp5mIyR-3" vertex="1">
                    <mxGeometry x="10" y="340" width="460" height="40" as="geometry"/>
                </mxCell>
            </root>
        </mxGraphModel>
    </diagram>
    <diagram id="Br6-GCHUpfwb4xp4ezAg" name="BackendDashboardsModule">
        <mxGraphModel dx="1177" dy="779" grid="1" gridSize="10" guides="1" tooltips="1" connect="1" arrows="1" fold="1" page="1" pageScale="1" pageWidth="1169" pageHeight="827" math="0" shadow="0">
            <root>
                <mxCell id="0"/>
                <mxCell id="1" parent="0"/>
                <mxCell id="SuPB6cbbiHJDRQ6zVgRs-15" value="DashboardsModule" style="swimlane;whiteSpace=wrap;html=1;" parent="1" vertex="1">
                    <mxGeometry x="170" y="240" width="790" height="240" as="geometry"/>
                </mxCell>
                <mxCell id="SuPB6cbbiHJDRQ6zVgRs-19" value="" style="endArrow=classic;html=1;entryX=0;entryY=0.75;entryDx=0;entryDy=0;exitX=1;exitY=0.75;exitDx=0;exitDy=0;" parent="SuPB6cbbiHJDRQ6zVgRs-15" edge="1">
                    <mxGeometry width="50" height="50" relative="1" as="geometry">
                        <mxPoint x="170" y="69.70999999999998" as="sourcePoint"/>
                        <mxPoint x="230" y="69.70999999999998" as="targetPoint"/>
                    </mxGeometry>
                </mxCell>
                <mxCell id="SuPB6cbbiHJDRQ6zVgRs-20" value="" style="endArrow=classic;html=1;entryX=0;entryY=0.75;entryDx=0;entryDy=0;exitX=1;exitY=0.75;exitDx=0;exitDy=0;" parent="SuPB6cbbiHJDRQ6zVgRs-15" edge="1">
                    <mxGeometry width="50" height="50" relative="1" as="geometry">
                        <mxPoint x="370" y="70" as="sourcePoint"/>
                        <mxPoint x="430" y="70" as="targetPoint"/>
                    </mxGeometry>
                </mxCell>
                <mxCell id="SuPB6cbbiHJDRQ6zVgRs-21" value="" style="endArrow=classic;html=1;entryX=0;entryY=0.5;entryDx=0;entryDy=0;exitX=1;exitY=0.75;exitDx=0;exitDy=0;" parent="SuPB6cbbiHJDRQ6zVgRs-15" target="SuPB6cbbiHJDRQ6zVgRs-10" edge="1">
                    <mxGeometry width="50" height="50" relative="1" as="geometry">
                        <mxPoint x="570" y="70" as="sourcePoint"/>
                        <mxPoint x="630" y="70" as="targetPoint"/>
                    </mxGeometry>
                </mxCell>
                <mxCell id="SuPB6cbbiHJDRQ6zVgRs-23" value="" style="endArrow=classic;html=1;exitX=0.25;exitY=0;exitDx=0;exitDy=0;" parent="SuPB6cbbiHJDRQ6zVgRs-15" source="SuPB6cbbiHJDRQ6zVgRs-13" edge="1">
                    <mxGeometry width="50" height="50" relative="1" as="geometry">
                        <mxPoint x="470" y="210" as="sourcePoint"/>
                        <mxPoint x="540" y="100" as="targetPoint"/>
                    </mxGeometry>
                </mxCell>
                <mxCell id="SuPB6cbbiHJDRQ6zVgRs-24" value="" style="endArrow=classic;html=1;exitX=0.75;exitY=0;exitDx=0;exitDy=0;" parent="SuPB6cbbiHJDRQ6zVgRs-15" source="SuPB6cbbiHJDRQ6zVgRs-13" edge="1">
                    <mxGeometry width="50" height="50" relative="1" as="geometry">
                        <mxPoint x="620" y="170" as="sourcePoint"/>
                        <mxPoint x="660" y="100" as="targetPoint"/>
                    </mxGeometry>
                </mxCell>
                <mxCell id="SuPB6cbbiHJDRQ6zVgRs-8" value="Controller" style="swimlane;fontStyle=0;childLayout=stackLayout;horizontal=1;startSize=26;fillColor=none;horizontalStack=0;resizeParent=1;resizeParentMax=0;resizeLast=0;collapsible=1;marginBottom=0;" parent="SuPB6cbbiHJDRQ6zVgRs-15" vertex="1">
                    <mxGeometry x="230" y="40" width="140" height="56" as="geometry"/>
                </mxCell>
                <mxCell id="G-R5u0f5guq3J0OuJTK2-7" value="API and routes" style="text;html=1;align=center;verticalAlign=middle;resizable=0;points=[];autosize=1;strokeColor=none;fillColor=none;" parent="SuPB6cbbiHJDRQ6zVgRs-8" vertex="1">
                    <mxGeometry y="26" width="140" height="30" as="geometry"/>
                </mxCell>
                <mxCell id="G-R5u0f5guq3J0OuJTK2-3" value="DashboardSerializer" style="swimlane;fontStyle=0;childLayout=stackLayout;horizontal=1;startSize=26;fillColor=none;horizontalStack=0;resizeParent=1;resizeParentMax=0;resizeLast=0;collapsible=1;marginBottom=0;" parent="SuPB6cbbiHJDRQ6zVgRs-15" vertex="1">
                    <mxGeometry x="230" y="130" width="140" height="56" as="geometry"/>
                </mxCell>
                <mxCell id="G-R5u0f5guq3J0OuJTK2-4" value="Control reponse data" style="text;html=1;align=center;verticalAlign=middle;resizable=0;points=[];autosize=1;strokeColor=none;fillColor=none;" parent="G-R5u0f5guq3J0OuJTK2-3" vertex="1">
                    <mxGeometry y="26" width="140" height="30" as="geometry"/>
                </mxCell>
                <mxCell id="G-R5u0f5guq3J0OuJTK2-6" value="Control reponse data" style="text;html=1;align=center;verticalAlign=middle;resizable=0;points=[];autosize=1;strokeColor=none;fillColor=none;" parent="SuPB6cbbiHJDRQ6zVgRs-15" vertex="1">
                    <mxGeometry x="300" y="186" width="140" height="30" as="geometry"/>
                </mxCell>
                <mxCell id="SuPB6cbbiHJDRQ6zVgRs-1" value="Request" style="shape=process;whiteSpace=wrap;html=1;backgroundOutline=1;" parent="1" vertex="1">
                    <mxGeometry x="30" y="280" width="80" height="60" as="geometry"/>
                </mxCell>
                <mxCell id="SuPB6cbbiHJDRQ6zVgRs-4" value="Validation" style="swimlane;fontStyle=0;childLayout=stackLayout;horizontal=1;startSize=26;fillColor=none;horizontalStack=0;resizeParent=1;resizeParentMax=0;resizeLast=0;collapsible=1;marginBottom=0;" parent="1" vertex="1">
                    <mxGeometry x="200" y="280" width="140" height="56" as="geometry"/>
                </mxCell>
                <mxCell id="G-R5u0f5guq3J0OuJTK2-5" value="Validate requests" style="text;html=1;align=center;verticalAlign=middle;resizable=0;points=[];autosize=1;strokeColor=none;fillColor=none;" parent="SuPB6cbbiHJDRQ6zVgRs-4" vertex="1">
                    <mxGeometry y="26" width="140" height="30" as="geometry"/>
                </mxCell>
                <mxCell id="SuPB6cbbiHJDRQ6zVgRs-9" value="Service" style="swimlane;fontStyle=0;childLayout=stackLayout;horizontal=1;startSize=26;fillColor=none;horizontalStack=0;resizeParent=1;resizeParentMax=0;resizeLast=0;collapsible=1;marginBottom=0;" parent="1" vertex="1">
                    <mxGeometry x="600" y="280" width="140" height="56" as="geometry"/>
                </mxCell>
                <mxCell id="G-R5u0f5guq3J0OuJTK2-8" value="Dashboards Logic" style="text;html=1;align=center;verticalAlign=middle;resizable=0;points=[];autosize=1;strokeColor=none;fillColor=none;" parent="SuPB6cbbiHJDRQ6zVgRs-9" vertex="1">
                    <mxGeometry y="26" width="140" height="30" as="geometry"/>
                </mxCell>
                <mxCell id="SuPB6cbbiHJDRQ6zVgRs-10" value="Repository" style="swimlane;fontStyle=0;childLayout=stackLayout;horizontal=1;startSize=26;fillColor=none;horizontalStack=0;resizeParent=1;resizeParentMax=0;resizeLast=0;collapsible=1;marginBottom=0;" parent="1" vertex="1">
                    <mxGeometry x="790" y="280" width="140" height="56" as="geometry"/>
                </mxCell>
                <mxCell id="G-R5u0f5guq3J0OuJTK2-9" value="Storage" style="text;html=1;align=center;verticalAlign=middle;resizable=0;points=[];autosize=1;strokeColor=none;fillColor=none;" parent="SuPB6cbbiHJDRQ6zVgRs-10" vertex="1">
                    <mxGeometry y="26" width="140" height="30" as="geometry"/>
                </mxCell>
                <mxCell id="SuPB6cbbiHJDRQ6zVgRs-11" value="«DTO»&lt;br&gt;&lt;b&gt;Dashboard&lt;/b&gt;" style="html=1;" parent="1" vertex="1">
                    <mxGeometry x="215" y="380" width="110" height="50" as="geometry"/>
                </mxCell>
                <mxCell id="SuPB6cbbiHJDRQ6zVgRs-13" value="«Entity»&lt;br&gt;&lt;b&gt;Dashboard&lt;/b&gt;" style="html=1;" parent="1" vertex="1">
                    <mxGeometry x="720" y="389" width="110" height="50" as="geometry"/>
                </mxCell>
                <mxCell id="SuPB6cbbiHJDRQ6zVgRs-14" value="MariaDb" style="shape=cylinder3;whiteSpace=wrap;html=1;boundedLbl=1;backgroundOutline=1;size=15;dashed=1;" parent="1" vertex="1">
                    <mxGeometry x="1020" y="280" width="90" height="110" as="geometry"/>
                </mxCell>
                <mxCell id="SuPB6cbbiHJDRQ6zVgRs-16" value="" style="endArrow=classic;html=1;entryX=0;entryY=0.5;entryDx=0;entryDy=0;exitX=1;exitY=0.5;exitDx=0;exitDy=0;" parent="1" source="SuPB6cbbiHJDRQ6zVgRs-1" target="SuPB6cbbiHJDRQ6zVgRs-4" edge="1">
                    <mxGeometry width="50" height="50" relative="1" as="geometry">
                        <mxPoint x="30" y="440" as="sourcePoint"/>
                        <mxPoint x="80" y="390" as="targetPoint"/>
                    </mxGeometry>
                </mxCell>
                <mxCell id="SuPB6cbbiHJDRQ6zVgRs-22" value="" style="endArrow=classic;startArrow=classic;html=1;entryX=0;entryY=0.5;entryDx=0;entryDy=0;entryPerimeter=0;" parent="1" target="SuPB6cbbiHJDRQ6zVgRs-14" edge="1">
                    <mxGeometry width="50" height="50" relative="1" as="geometry">
                        <mxPoint x="930" y="320" as="sourcePoint"/>
                        <mxPoint x="1130" y="420" as="targetPoint"/>
                    </mxGeometry>
                </mxCell>
                <mxCell id="SuPB6cbbiHJDRQ6zVgRs-25" value="" style="endArrow=classic;html=1;entryX=0.5;entryY=1;entryDx=0;entryDy=0;exitX=0.5;exitY=0;exitDx=0;exitDy=0;" parent="1" source="SuPB6cbbiHJDRQ6zVgRs-11" target="SuPB6cbbiHJDRQ6zVgRs-4" edge="1">
                    <mxGeometry width="50" height="50" relative="1" as="geometry">
                        <mxPoint x="160" y="410" as="sourcePoint"/>
                        <mxPoint x="210" y="360" as="targetPoint"/>
                    </mxGeometry>
                </mxCell>
            </root>
        </mxGraphModel>
    </diagram>
</mxfile>